<svg width="199" height="75" viewBox="0 0 199 75" fill="none" xmlns="http://www.w3.org/2000/svg">
<path d="M107.5 20.1V55H100.5V32.3L91.15 55H85.85L76.45 32.3V55H69.45V20.1H77.4L88.5 46.05L99.6 20.1H107.5ZM117.971 24C116.737 24 115.704 23.6167 114.871 22.85C114.071 22.05 113.671 21.0667 113.671 19.9C113.671 18.7333 114.071 17.7667 114.871 17C115.704 16.2 116.737 15.8 117.971 15.8C119.204 15.8 120.221 16.2 121.021 17C121.854 17.7667 122.271 18.7333 122.271 19.9C122.271 21.0667 121.854 22.05 121.021 22.85C120.221 23.6167 119.204 24 117.971 24ZM121.421 27.3V55H114.421V27.3H121.421ZM136.487 33.05V46.45C136.487 47.3833 136.703 48.0667 137.137 48.5C137.603 48.9 138.37 49.1 139.437 49.1H142.687V55H138.287C132.387 55 129.437 52.1333 129.437 46.4V33.05H126.137V27.3H129.437V20.45H136.487V27.3H142.687V33.05H136.487ZM154.721 31.6C155.621 30.1333 156.788 28.9833 158.221 28.15C159.688 27.3167 161.355 26.9 163.221 26.9V34.25H161.371C159.171 34.25 157.505 34.7667 156.371 35.8C155.271 36.8333 154.721 38.6333 154.721 41.2V55H147.721V27.3H154.721V31.6ZM166.136 41.05C166.136 38.25 166.686 35.7667 167.786 33.6C168.92 31.4333 170.436 29.7667 172.336 28.6C174.27 27.4333 176.42 26.85 178.786 26.85C180.853 26.85 182.653 27.2667 184.186 28.1C185.753 28.9333 187.003 29.9833 187.936 31.25V27.3H194.986V55H187.936V50.95C187.036 52.25 185.786 53.3333 184.186 54.2C182.62 55.0333 180.803 55.45 178.736 55.45C176.403 55.45 174.27 54.85 172.336 53.65C170.436 52.45 168.92 50.7667 167.786 48.6C166.686 46.4 166.136 43.8833 166.136 41.05ZM187.936 41.15C187.936 39.45 187.603 38 186.936 36.8C186.27 35.5667 185.37 34.6333 184.236 34C183.103 33.3333 181.886 33 180.586 33C179.286 33 178.086 33.3167 176.986 33.95C175.886 34.5833 174.986 35.5167 174.286 36.75C173.62 37.95 173.286 39.3833 173.286 41.05C173.286 42.7167 173.62 44.1833 174.286 45.45C174.986 46.6833 175.886 47.6333 176.986 48.3C178.12 48.9667 179.32 49.3 180.586 49.3C181.886 49.3 183.103 48.9833 184.236 48.35C185.37 47.6833 186.27 46.75 186.936 45.55C187.603 44.3167 187.936 42.85 187.936 41.15Z" fill="black"/>
<rect y="7" width="60" height="60" rx="10" fill="black"/>
<path d="M15.35 20.1V41.7C15.35 44.0667 15.9667 45.8833 17.2 47.15C18.4333 48.3833 20.1667 49 22.4 49C24.6667 49 26.4167 48.3833 27.65 47.15C28.8833 45.8833 29.5 44.0667 29.5 41.7V20.1H36.55V41.65C36.55 44.6167 35.9 47.1333 34.6 49.2C33.3333 51.2333 31.6167 52.7667 29.45 53.8C27.3167 54.8333 24.9333 55.35 22.3 55.35C19.7 55.35 17.3333 54.8333 15.2 53.8C13.1 52.7667 11.4333 51.2333 10.2 49.2C8.96667 47.1333 8.35 44.6167 8.35 41.65V20.1H15.35Z" fill="white"/>
<rect x="42" y="15" width="10" height="10" rx="5" fill="white"/>
<path d="M107.5 20.1V55H100.5V32.3L91.15 55H85.85L76.45 32.3V55H69.45V20.1H77.4L88.5 46.05L99.6 20.1H107.5ZM117.971 24C116.737 24 115.704 23.6167 114.871 22.85C114.071 22.05 113.671 21.0667 113.671 19.9C113.671 18.7333 114.071 17.7667 114.871 17C115.704 16.2 116.737 15.8 117.971 15.8C119.204 15.8 120.221 16.2 121.021 17C121.854 17.7667 122.271 18.7333 122.271 19.9C122.271 21.0667 121.854 22.05 121.021 22.85C120.221 23.6167 119.204 24 117.971 24ZM121.421 27.3V55H114.421V27.3H121.421ZM136.487 33.05V46.45C136.487 47.3833 136.703 48.0667 137.137 48.5C137.603 48.9 138.37 49.1 139.437 49.1H142.687V55H138.287C132.387 55 129.437 52.1333 129.437 46.4V33.05H126.137V27.3H129.437V20.45H136.487V27.3H142.687V33.05H136.487ZM154.721 31.6C155.621 30.1333 156.788 28.9833 158.221 28.15C159.688 27.3167 161.355 26.9 163.221 26.9V34.25H161.371C159.171 34.25 157.505 34.7667 156.371 35.8C155.271 36.8333 154.721 38.6333 154.721 41.2V55H147.721V27.3H154.721V31.6ZM166.136 41.05C166.136 38.25 166.686 35.7667 167.786 33.6C168.92 31.4333 170.436 29.7667 172.336 28.6C174.27 27.4333 176.42 26.85 178.786 26.85C180.853 26.85 182.653 27.2667 184.186 28.1C185.753 28.9333 187.003 29.9833 187.936 31.25V27.3H194.986V55H187.936V50.95C187.036 52.25 185.786 53.3333 184.186 54.2C182.62 55.0333 180.803 55.45 178.736 55.45C176.403 55.45 174.27 54.85 172.336 53.65C170.436 52.45 168.92 50.7667 167.786 48.6C166.686 46.4 166.136 43.8833 166.136 41.05ZM187.936 41.15C187.936 39.45 187.603 38 186.936 36.8C186.27 35.5667 185.37 34.6333 184.236 34C183.103 33.3333 181.886 33 180.586 33C179.286 33 178.086 33.3167 176.986 33.95C175.886 34.5833 174.986 35.5167 174.286 36.75C173.62 37.95 173.286 39.3833 173.286 41.05C173.286 42.7167 173.62 44.1833 174.286 45.45C174.986 46.6833 175.886 47.6333 176.986 48.3C178.12 48.9667 179.32 49.3 180.586 49.3C181.886 49.3 183.103 48.9833 184.236 48.35C185.37 47.6833 186.27 46.75 186.936 45.55C187.603 44.3167 187.936 42.85 187.936 41.15Z" fill="black"/>
<rect y="7" width="60" height="60" rx="10" fill="black"/>
<path d="M17.35 20.1V41.7C17.35 44.0667 17.9667 45.8833 19.2 47.15C20.4333 48.3833 22.1667 49 24.4 49C26.6667 49 28.4167 48.3833 29.65 47.15C30.8833 45.8833 31.5 44.0667 31.5 41.7V20.1H38.55V41.65C38.55 44.6167 37.9 47.1333 36.6 49.2C35.3333 51.2333 33.6167 52.7667 31.45 53.8C29.3167 54.8333 26.9333 55.35 24.3 55.35C21.7 55.35 19.3333 54.8333 17.2 53.8C15.1 52.7667 13.4333 51.2333 12.2 49.2C10.9667 47.1333 10.35 44.6167 10.35 41.65V20.1H17.35Z" fill="white"/>
<rect x="43" y="20" width="8" height="8" rx="4" fill="white"/>
<path d="M47 31V53" stroke="white" stroke-width="6"/>
</svg>
